<svg width="1728" height="1112" viewBox="0 0 1728 1112" fill="none" xmlns="http://www.w3.org/2000/svg">
<g opacity="0.5">
<path opacity="0.3" d="M143.883 862.796L287.745 1006.6H143.883H0L143.883 862.796Z" fill="url(#paint0_linear_4_7527)"/>
<path opacity="0.1" d="M143.883 1150.39L287.745 1006.6H143.883H0L143.883 1150.39Z" fill="url(#paint1_linear_4_7527)"/>
<path opacity="0.1" d="M431.917 1150.39L575.8 1006.6H431.917H288.055L431.917 1150.39Z" fill="url(#paint2_linear_4_7527)"/>
<path opacity="0.3" d="M288.055 1006.6L144.172 1150.39H288.055H431.917L288.055 1006.6Z" fill="url(#paint3_linear_4_7527)"/>
<path opacity="0.1" d="M288.055 1006.6L144.172 862.796H288.055H431.917L288.055 1006.6Z" fill="url(#paint4_linear_4_7527)"/>
<path opacity="0.3" d="M719.972 862.796L863.855 1006.6H719.972H576.09L719.972 862.796Z" fill="url(#paint5_linear_4_7527)"/>
<path opacity="0.1" d="M719.972 1150.39L863.855 1006.6H719.972H576.09L719.972 1150.39Z" fill="url(#paint6_linear_4_7527)"/>
<path opacity="0.22" d="M576.09 1006.6L432.228 1150.39H576.09H719.972L576.09 1006.6Z" fill="url(#paint7_linear_4_7527)"/>
<path opacity="0.1" d="M432.062 1150.53L144.172 862.796H432.062H719.972L432.062 1150.53Z" fill="url(#paint8_linear_4_7527)"/>
<path opacity="0.3" d="M1008.03 287.592L1151.89 431.398H1008.03H864.145L1008.03 287.592Z" fill="url(#paint9_linear_4_7527)"/>
<path opacity="0.1" d="M1008.03 575.204L1151.89 431.398H1008.03H864.145L1008.03 575.204Z" fill="url(#paint10_linear_4_7527)"/>
<path opacity="0.3" d="M1008.03 575.204L1151.89 718.99H1008.03H864.145L1008.03 575.204Z" fill="url(#paint11_linear_4_7527)"/>
<path opacity="0.1" d="M1008.03 862.796L1151.89 718.99H1008.03H864.145L1008.03 862.796Z" fill="url(#paint12_linear_4_7527)"/>
<path opacity="0.08" d="M864.145 431.398L720.262 287.592H864.145H1008.03L864.145 431.398Z" fill="url(#paint13_linear_4_7527)"/>
<path opacity="0.3" d="M864.145 431.398L720.262 575.204H864.145H1008.03L864.145 431.398Z" fill="url(#paint14_linear_4_7527)"/>
<path opacity="0.1" d="M864.145 718.99L720.262 575.204H864.145H1008.03L864.145 718.99Z" fill="url(#paint15_linear_4_7527)"/>
<path opacity="0.3" d="M1008.03 862.796L1151.89 1006.6H1008.03H864.145L1008.03 862.796Z" fill="url(#paint16_linear_4_7527)"/>
<path opacity="0.1" d="M1008.03 1150.39L1151.89 1006.6H1008.03H864.145L1008.03 1150.39Z" fill="url(#paint17_linear_4_7527)"/>
<path opacity="0.3" d="M864.145 1006.6L720.262 1150.39H864.145H1008.03L864.145 1006.6Z" fill="url(#paint18_linear_4_7527)"/>
<path opacity="0.3" d="M864.145 718.99L720.262 862.796H864.145H1008.03L864.145 718.99Z" fill="url(#paint19_linear_4_7527)"/>
<path opacity="0.1" d="M864.145 1006.6L720.262 862.796H864.145H1008.03L864.145 1006.6Z" fill="url(#paint20_linear_4_7527)"/>
<path opacity="0.3" d="M1296.06 287.592L1439.95 431.398H1296.06H1152.2L1296.06 287.592Z" fill="url(#paint21_linear_4_7527)"/>
<path opacity="0.1" d="M1296.06 575.204L1439.95 431.398H1296.06H1152.2L1296.06 575.204Z" fill="url(#paint22_linear_4_7527)"/>
<path opacity="0.3" d="M1296.06 575.204L1439.95 718.99H1296.06H1152.2L1296.06 575.204Z" fill="url(#paint23_linear_4_7527)"/>
<path opacity="0.1" d="M1296.06 862.796L1439.95 718.99H1296.06H1152.2L1296.06 862.796Z" fill="url(#paint24_linear_4_7527)"/>
<path opacity="0.1" d="M1295.88 453L1152 309.194H1295.88H1439.74L1295.88 453Z" fill="url(#paint25_linear_4_7527)"/>
<path opacity="0.3" d="M1008.32 575.204L1152.2 431.398V575.204V718.99L1008.32 575.204Z" fill="url(#paint26_linear_4_7527)"/>
<path opacity="0.3" d="M1152.2 718.99L1008.32 862.796H1152.2H1296.06L1152.2 718.99Z" fill="url(#paint27_linear_4_7527)"/>
<path opacity="0.3" d="M1584.12 0L1728 143.786H1584.12H1440.23L1584.12 0Z" fill="url(#paint28_linear_4_7527)"/>
<path opacity="0.1" d="M1584.12 287.592L1728 143.786H1584.12H1440.23L1584.12 287.592Z" fill="url(#paint29_linear_4_7527)"/>
<path opacity="0.3" d="M1584.12 287.592L1728 431.398H1584.12H1440.23L1584.12 287.592Z" fill="url(#paint30_linear_4_7527)"/>
<path opacity="0.1" d="M1584.12 575.204L1728 431.398H1584.12H1440.23L1584.12 575.204Z" fill="url(#paint31_linear_4_7527)"/>
<path opacity="0.3" d="M1584.12 575.204L1728 718.99H1584.12H1440.23L1584.12 575.204Z" fill="url(#paint32_linear_4_7527)"/>
<path opacity="0.1" d="M1584.12 862.796L1728 718.99H1584.12H1440.23L1584.12 862.796Z" fill="url(#paint33_linear_4_7527)"/>
<path opacity="0.3" d="M1440.23 143.786L1296.37 287.592H1440.23H1584.12L1440.23 143.786Z" fill="url(#paint34_linear_4_7527)"/>
<path opacity="0.1" d="M1440.23 431.398L1296.37 287.592H1440.23H1584.12L1440.23 431.398Z" fill="url(#paint35_linear_4_7527)"/>
<path opacity="0.3" d="M1296.37 575.204L1440.23 431.398V575.204V718.99L1296.37 575.204Z" fill="url(#paint36_linear_4_7527)"/>
<path opacity="0.3" d="M1584.12 862.796L1728 1006.6H1584.12H1440.23L1584.12 862.796Z" fill="url(#paint37_linear_4_7527)"/>
<path opacity="0.1" d="M1584.12 1150.39L1728 1006.6H1584.12H1440.23L1584.12 1150.39Z" fill="url(#paint38_linear_4_7527)"/>
<path opacity="0.1" d="M1440.23 143.786L1296.37 0H1440.23H1584.12L1440.23 143.786Z" fill="url(#paint39_linear_4_7527)"/>
<path opacity="0.3" d="M1440.23 718.99L1296.37 862.796H1440.23H1584.12L1440.23 718.99Z" fill="url(#paint40_linear_4_7527)"/>
<path opacity="0.1" d="M1440.23 1006.6L1296.37 862.796H1440.23H1584.12L1440.23 1006.6Z" fill="url(#paint41_linear_4_7527)"/>
<path opacity="0.3" d="M1296.06 862.506L1008.03 1150.39H1296.06H1584.12L1296.06 862.506Z" fill="url(#paint42_linear_4_7527)"/>
</g>
<defs>
<linearGradient id="paint0_linear_4_7527" x1="70.5551" y1="933.314" x2="205.634" y2="1068.46" gradientUnits="userSpaceOnUse">
<stop stop-color="#6DA4B5"/>
<stop offset="1" stop-color="#0067D7"/>
</linearGradient>
<linearGradient id="paint1_linear_4_7527" x1="70.5551" y1="1079.87" x2="205.635" y2="944.739" gradientUnits="userSpaceOnUse">
<stop stop-color="#6DA4B5"/>
<stop offset="1" stop-color="#0067D7"/>
</linearGradient>
<linearGradient id="paint2_linear_4_7527" x1="358.61" y1="1079.87" x2="493.669" y2="944.739" gradientUnits="userSpaceOnUse">
<stop stop-color="#6DA4B5"/>
<stop offset="1" stop-color="#0067D7"/>
</linearGradient>
<linearGradient id="paint3_linear_4_7527" x1="361.362" y1="1077.12" x2="226.303" y2="1212.25" gradientUnits="userSpaceOnUse">
<stop stop-color="#6DA4B5"/>
<stop offset="1" stop-color="#0067D7"/>
</linearGradient>
<linearGradient id="paint4_linear_4_7527" x1="361.362" y1="936.085" x2="226.303" y2="800.933" gradientUnits="userSpaceOnUse">
<stop stop-color="#6DA4B5"/>
<stop offset="1" stop-color="#0067D7"/>
</linearGradient>
<linearGradient id="paint5_linear_4_7527" x1="646.665" y1="933.314" x2="781.724" y2="1068.46" gradientUnits="userSpaceOnUse">
<stop stop-color="#6DA4B5"/>
<stop offset="1" stop-color="#0067D7"/>
</linearGradient>
<linearGradient id="paint6_linear_4_7527" x1="646.665" y1="1079.87" x2="781.724" y2="944.739" gradientUnits="userSpaceOnUse">
<stop stop-color="#6DA4B5"/>
<stop offset="1" stop-color="#0067D7"/>
</linearGradient>
<linearGradient id="paint7_linear_4_7527" x1="649.417" y1="1077.12" x2="514.338" y2="1212.25" gradientUnits="userSpaceOnUse">
<stop stop-color="#6DA4B5"/>
<stop offset="1" stop-color="#0067D7"/>
</linearGradient>
<linearGradient id="paint8_linear_4_7527" x1="578.779" y1="1009.44" x2="308.496" y2="739.009" gradientUnits="userSpaceOnUse">
<stop stop-color="#6DA4B5"/>
<stop offset="1" stop-color="#0067D7"/>
</linearGradient>
<linearGradient id="paint9_linear_4_7527" x1="934.7" y1="358.109" x2="1069.78" y2="493.261" gradientUnits="userSpaceOnUse">
<stop stop-color="#6DA4B5"/>
<stop offset="1" stop-color="#0067D7"/>
</linearGradient>
<linearGradient id="paint10_linear_4_7527" x1="934.7" y1="504.686" x2="1069.78" y2="369.535" gradientUnits="userSpaceOnUse">
<stop stop-color="#6DA4B5"/>
<stop offset="1" stop-color="#0067D7"/>
</linearGradient>
<linearGradient id="paint11_linear_4_7527" x1="934.7" y1="645.722" x2="1069.78" y2="780.852" gradientUnits="userSpaceOnUse">
<stop stop-color="#6DA4B5"/>
<stop offset="1" stop-color="#0067D7"/>
</linearGradient>
<linearGradient id="paint12_linear_4_7527" x1="934.7" y1="792.278" x2="1069.78" y2="657.127" gradientUnits="userSpaceOnUse">
<stop stop-color="#6DA4B5"/>
<stop offset="1" stop-color="#0067D7"/>
</linearGradient>
<linearGradient id="paint13_linear_4_7527" x1="937.452" y1="360.88" x2="802.393" y2="225.729" gradientUnits="userSpaceOnUse">
<stop stop-color="#6DA4B5"/>
<stop offset="1" stop-color="#0067D7"/>
</linearGradient>
<linearGradient id="paint14_linear_4_7527" x1="937.452" y1="501.915" x2="802.393" y2="637.067" gradientUnits="userSpaceOnUse">
<stop stop-color="#6DA4B5"/>
<stop offset="1" stop-color="#0067D7"/>
</linearGradient>
<linearGradient id="paint15_linear_4_7527" x1="937.452" y1="648.472" x2="802.393" y2="513.341" gradientUnits="userSpaceOnUse">
<stop stop-color="#6DA4B5"/>
<stop offset="1" stop-color="#0067D7"/>
</linearGradient>
<linearGradient id="paint16_linear_4_7527" x1="934.7" y1="933.314" x2="1069.78" y2="1068.46" gradientUnits="userSpaceOnUse">
<stop stop-color="#6DA4B5"/>
<stop offset="1" stop-color="#0067D7"/>
</linearGradient>
<linearGradient id="paint17_linear_4_7527" x1="934.7" y1="1079.87" x2="1069.78" y2="944.739" gradientUnits="userSpaceOnUse">
<stop stop-color="#6DA4B5"/>
<stop offset="1" stop-color="#0067D7"/>
</linearGradient>
<linearGradient id="paint18_linear_4_7527" x1="937.452" y1="1077.12" x2="802.393" y2="1212.25" gradientUnits="userSpaceOnUse">
<stop stop-color="#6DA4B5"/>
<stop offset="1" stop-color="#0067D7"/>
</linearGradient>
<linearGradient id="paint19_linear_4_7527" x1="937.452" y1="789.528" x2="802.393" y2="924.659" gradientUnits="userSpaceOnUse">
<stop stop-color="#6DA4B5"/>
<stop offset="1" stop-color="#0067D7"/>
</linearGradient>
<linearGradient id="paint20_linear_4_7527" x1="937.452" y1="936.085" x2="802.393" y2="800.933" gradientUnits="userSpaceOnUse">
<stop stop-color="#6DA4B5"/>
<stop offset="1" stop-color="#0067D7"/>
</linearGradient>
<linearGradient id="paint21_linear_4_7527" x1="1222.76" y1="358.109" x2="1357.81" y2="493.261" gradientUnits="userSpaceOnUse">
<stop stop-color="#6DA4B5"/>
<stop offset="1" stop-color="#0067D7"/>
</linearGradient>
<linearGradient id="paint22_linear_4_7527" x1="1222.76" y1="504.686" x2="1357.81" y2="369.535" gradientUnits="userSpaceOnUse">
<stop stop-color="#6DA4B5"/>
<stop offset="1" stop-color="#0067D7"/>
</linearGradient>
<linearGradient id="paint23_linear_4_7527" x1="1222.76" y1="645.722" x2="1357.81" y2="780.852" gradientUnits="userSpaceOnUse">
<stop stop-color="#6DA4B5"/>
<stop offset="1" stop-color="#0067D7"/>
</linearGradient>
<linearGradient id="paint24_linear_4_7527" x1="1222.76" y1="792.278" x2="1357.81" y2="657.127" gradientUnits="userSpaceOnUse">
<stop stop-color="#6DA4B5"/>
<stop offset="1" stop-color="#0067D7"/>
</linearGradient>
<linearGradient id="paint25_linear_4_7527" x1="1369.19" y1="382.482" x2="1234.11" y2="247.331" gradientUnits="userSpaceOnUse">
<stop stop-color="#6DA4B5"/>
<stop offset="1" stop-color="#0067D7"/>
</linearGradient>
<linearGradient id="paint26_linear_4_7527" x1="1078.87" y1="648.472" x2="1213.93" y2="513.321" gradientUnits="userSpaceOnUse">
<stop stop-color="#6DA4B5"/>
<stop offset="1" stop-color="#0067D7"/>
</linearGradient>
<linearGradient id="paint27_linear_4_7527" x1="1225.51" y1="789.528" x2="1090.43" y2="924.659" gradientUnits="userSpaceOnUse">
<stop stop-color="#0067D7"/>
<stop offset="1" stop-color="#0067D7"/>
</linearGradient>
<linearGradient id="paint28_linear_4_7527" x1="1510.79" y1="70.5176" x2="1645.87" y2="205.648" gradientUnits="userSpaceOnUse">
<stop stop-color="#6DA4B5"/>
<stop offset="1" stop-color="#0067D7"/>
</linearGradient>
<linearGradient id="paint29_linear_4_7527" x1="1510.79" y1="217.074" x2="1645.87" y2="81.9436" gradientUnits="userSpaceOnUse">
<stop stop-color="#6DA4B5"/>
<stop offset="1" stop-color="#0067D7"/>
</linearGradient>
<linearGradient id="paint30_linear_4_7527" x1="1510.79" y1="358.109" x2="1645.87" y2="493.261" gradientUnits="userSpaceOnUse">
<stop stop-color="white"/>
<stop offset="1" stop-color="#0067D7"/>
</linearGradient>
<linearGradient id="paint31_linear_4_7527" x1="1510.79" y1="504.686" x2="1645.87" y2="369.535" gradientUnits="userSpaceOnUse">
<stop stop-color="#6DA4B5"/>
<stop offset="1" stop-color="#0067D7"/>
</linearGradient>
<linearGradient id="paint32_linear_4_7527" x1="1510.79" y1="645.722" x2="1645.87" y2="780.852" gradientUnits="userSpaceOnUse">
<stop stop-color="#6DA4B5"/>
<stop offset="1" stop-color="#0067D7"/>
</linearGradient>
<linearGradient id="paint33_linear_4_7527" x1="1510.79" y1="792.278" x2="1645.87" y2="657.127" gradientUnits="userSpaceOnUse">
<stop stop-color="#6DA4B5"/>
<stop offset="1" stop-color="#0067D7"/>
</linearGradient>
<linearGradient id="paint34_linear_4_7527" x1="1513.56" y1="214.324" x2="1378.48" y2="349.454" gradientUnits="userSpaceOnUse">
<stop stop-color="#0067D7"/>
<stop offset="1" stop-color="#0067D7"/>
</linearGradient>
<linearGradient id="paint35_linear_4_7527" x1="1513.56" y1="360.88" x2="1378.48" y2="225.729" gradientUnits="userSpaceOnUse">
<stop stop-color="#6DA4B5"/>
<stop offset="1" stop-color="#0067D7"/>
</linearGradient>
<linearGradient id="paint36_linear_4_7527" x1="1366.93" y1="648.472" x2="1501.99" y2="513.341" gradientUnits="userSpaceOnUse">
<stop stop-color="#6DA4B5"/>
<stop offset="1" stop-color="#0067D7"/>
</linearGradient>
<linearGradient id="paint37_linear_4_7527" x1="1510.79" y1="933.314" x2="1645.87" y2="1068.46" gradientUnits="userSpaceOnUse">
<stop stop-color="#6DA4B5"/>
<stop offset="1" stop-color="#0067D7"/>
</linearGradient>
<linearGradient id="paint38_linear_4_7527" x1="1510.79" y1="1079.87" x2="1645.87" y2="944.739" gradientUnits="userSpaceOnUse">
<stop stop-color="#6DA4B5"/>
<stop offset="1" stop-color="#0067D7"/>
</linearGradient>
<linearGradient id="paint39_linear_4_7527" x1="1513.56" y1="73.268" x2="1378.48" y2="-61.8627" gradientUnits="userSpaceOnUse">
<stop stop-color="#6DA4B5"/>
<stop offset="1" stop-color="#0067D7"/>
</linearGradient>
<linearGradient id="paint40_linear_4_7527" x1="1513.56" y1="789.528" x2="1378.48" y2="924.659" gradientUnits="userSpaceOnUse">
<stop stop-color="#0067D7"/>
<stop offset="1" stop-color="#0067D7"/>
</linearGradient>
<linearGradient id="paint41_linear_4_7527" x1="1513.56" y1="936.085" x2="1378.48" y2="800.933" gradientUnits="userSpaceOnUse">
<stop stop-color="#6DA4B5"/>
<stop offset="1" stop-color="#0067D7"/>
</linearGradient>
<linearGradient id="paint42_linear_4_7527" x1="1442.84" y1="1003.69" x2="1172.43" y2="1274.26" gradientUnits="userSpaceOnUse">
<stop stop-color="#6DA4B5"/>
<stop offset="1" stop-color="#0067D7"/>
</linearGradient>
</defs>
</svg>