<svg width="1304" height="976" viewBox="0 0 1304 976" fill="none" xmlns="http://www.w3.org/2000/svg">
<g opacity="0.62">
<path opacity="0.3" d="M109.358 650.667L217.85 759.116H109.358H0.850586L109.358 650.667Z" fill="url(#paint0_linear_14_2157)"/>
<path opacity="0.1" d="M109.358 867.55L217.85 759.116H109.358H0.850586L109.358 867.55Z" fill="url(#paint1_linear_14_2157)"/>
<path opacity="0.3" d="M109.358 867.55L217.85 976H109.358H0.850586L109.358 867.55Z" fill="url(#paint2_linear_14_2157)"/>
<path opacity="0.1" d="M326.576 867.55L435.083 759.116H326.576H218.084L326.576 867.55Z" fill="url(#paint3_linear_14_2157)"/>
<path opacity="0.3" d="M326.576 867.55L435.083 976H326.576H218.084L326.576 867.55Z" fill="url(#paint4_linear_14_2157)"/>
<path opacity="0.3" d="M218.084 759.116L109.576 867.55H218.084H326.575L218.084 759.116Z" fill="url(#paint5_linear_14_2157)"/>
<path opacity="0.1" d="M218.084 976L109.576 867.55H218.084H326.575L218.084 976Z" fill="url(#paint6_linear_14_2157)"/>
<path opacity="0.1" d="M218.084 759.116L109.576 650.667H218.084H326.575L218.084 759.116Z" fill="url(#paint7_linear_14_2157)"/>
<path opacity="0.3" d="M543.809 650.667L652.317 759.116H543.809H435.302L543.809 650.667Z" fill="url(#paint8_linear_14_2157)"/>
<path opacity="0.1" d="M543.809 867.55L652.317 759.116H543.809H435.302L543.809 867.55Z" fill="url(#paint9_linear_14_2157)"/>
<path opacity="0.3" d="M543.809 867.55L652.317 976H543.809H435.302L543.809 867.55Z" fill="url(#paint10_linear_14_2157)"/>
<path opacity="0.22" d="M435.301 759.116L326.81 867.55H435.301H543.809L435.301 759.116Z" fill="url(#paint11_linear_14_2157)"/>
<path opacity="0.1" d="M435.301 976L326.81 867.55H435.301H543.809L435.301 976Z" fill="url(#paint12_linear_14_2157)"/>
<path opacity="0.1" d="M326.685 867.66L109.576 650.667H326.685H543.809L326.685 867.66Z" fill="url(#paint13_linear_14_2157)"/>
<path opacity="0.3" d="M761.042 216.884L869.533 325.333H761.042H652.534L761.042 216.884Z" fill="url(#paint14_linear_14_2157)"/>
<path opacity="0.1" d="M761.042 433.783L869.533 325.333H761.042H652.534L761.042 433.783Z" fill="url(#paint15_linear_14_2157)"/>
<path opacity="0.3" d="M761.042 433.783L869.533 542.217H761.042H652.534L761.042 433.783Z" fill="url(#paint16_linear_14_2157)"/>
<path opacity="0.1" d="M761.042 650.667L869.533 542.217H761.042H652.534L761.042 650.667Z" fill="url(#paint17_linear_14_2157)"/>
<path opacity="0.08" d="M652.535 325.333L544.027 216.884H652.535H761.042L652.535 325.333Z" fill="url(#paint18_linear_14_2157)"/>
<path opacity="0.3" d="M652.535 325.333L544.027 433.783H652.535H761.042L652.535 325.333Z" fill="url(#paint19_linear_14_2157)"/>
<path opacity="0.1" d="M652.535 542.217L544.027 433.783H652.535H761.042L652.535 542.217Z" fill="url(#paint20_linear_14_2157)"/>
<path opacity="0.3" d="M761.042 650.667L869.533 759.116H761.042H652.534L761.042 650.667Z" fill="url(#paint21_linear_14_2157)"/>
<path opacity="0.1" d="M761.042 867.55L869.533 759.116H761.042H652.534L761.042 867.55Z" fill="url(#paint22_linear_14_2157)"/>
<path opacity="0.3" d="M761.042 867.55L869.533 976H761.042H652.534L761.042 867.55Z" fill="url(#paint23_linear_14_2157)"/>
<path opacity="0.3" d="M652.535 759.116L544.027 867.55H652.535H761.042L652.535 759.116Z" fill="url(#paint24_linear_14_2157)"/>
<path opacity="0.1" d="M652.535 976L544.027 867.55H652.535H761.042L652.535 976Z" fill="url(#paint25_linear_14_2157)"/>
<path opacity="0.3" d="M652.535 542.217L544.027 650.667H652.535H761.042L652.535 542.217Z" fill="url(#paint26_linear_14_2157)"/>
<path opacity="0.1" d="M652.535 759.116L544.027 650.667H652.535H761.042L652.535 759.116Z" fill="url(#paint27_linear_14_2157)"/>
<path opacity="0.3" d="M978.259 216.884L1086.77 325.333H978.259H869.768L978.259 216.884Z" fill="url(#paint28_linear_14_2157)"/>
<path opacity="0.1" d="M978.259 433.783L1086.77 325.333H978.259H869.768L978.259 433.783Z" fill="url(#paint29_linear_14_2157)"/>
<path opacity="0.3" d="M978.259 433.783L1086.77 542.217H978.259H869.768L978.259 433.783Z" fill="url(#paint30_linear_14_2157)"/>
<path opacity="0.1" d="M978.259 650.667L1086.77 542.217H978.259H869.768L978.259 650.667Z" fill="url(#paint31_linear_14_2157)"/>
<path opacity="0.1" d="M869.768 325.333L761.261 216.884H869.768H978.26L869.768 325.333Z" fill="url(#paint32_linear_14_2157)"/>
<path opacity="0.3" d="M761.261 433.783L869.768 325.333V433.783V542.217L761.261 433.783Z" fill="url(#paint33_linear_14_2157)"/>
<path opacity="0.3" d="M978.259 867.55L1086.77 976H978.259H869.768L978.259 867.55Z" fill="url(#paint34_linear_14_2157)"/>
<path opacity="0.1" d="M869.768 976L761.261 867.55H869.768H978.26L869.768 976Z" fill="url(#paint35_linear_14_2157)"/>
<path opacity="0.3" d="M869.768 542.217L761.261 650.667H869.768H978.26L869.768 542.217Z" fill="url(#paint36_linear_14_2157)"/>
<path opacity="0.3" d="M1195.49 0L1304 108.434H1195.49H1086.99L1195.49 0Z" fill="url(#paint37_linear_14_2157)"/>
<path opacity="0.1" d="M1195.49 216.884L1304 108.434H1195.49H1086.99L1195.49 216.884Z" fill="url(#paint38_linear_14_2157)"/>
<path opacity="0.3" d="M1195.49 216.884L1304 325.333H1195.49H1086.99L1195.49 216.884Z" fill="url(#paint39_linear_14_2157)"/>
<path opacity="0.1" d="M1195.49 433.783L1304 325.333H1195.49H1086.99L1195.49 433.783Z" fill="url(#paint40_linear_14_2157)"/>
<path opacity="0.3" d="M1195.49 433.783L1304 542.217H1195.49H1086.99L1195.49 433.783Z" fill="url(#paint41_linear_14_2157)"/>
<path opacity="0.1" d="M1195.49 650.667L1304 542.217H1195.49H1086.99L1195.49 650.667Z" fill="url(#paint42_linear_14_2157)"/>
<path opacity="0.3" d="M1086.98 108.434L978.493 216.884H1086.98H1195.49L1086.98 108.434Z" fill="url(#paint43_linear_14_2157)"/>
<path opacity="0.1" d="M1086.98 325.333L978.493 216.884H1086.98H1195.49L1086.98 325.333Z" fill="url(#paint44_linear_14_2157)"/>
<path opacity="0.3" d="M978.493 433.783L1086.98 325.333V433.783V542.217L978.493 433.783Z" fill="url(#paint45_linear_14_2157)"/>
<path opacity="0.3" d="M1195.49 650.667L1304 759.116H1195.49H1086.99L1195.49 650.667Z" fill="url(#paint46_linear_14_2157)"/>
<path opacity="0.1" d="M1195.49 867.55L1304 759.116H1195.49H1086.99L1195.49 867.55Z" fill="url(#paint47_linear_14_2157)"/>
<path opacity="0.3" d="M1195.49 867.55L1304 976H1195.49H1086.99L1195.49 867.55Z" fill="url(#paint48_linear_14_2157)"/>
<path opacity="0.1" d="M1086.98 108.434L978.493 0H1086.98H1195.49L1086.98 108.434Z" fill="url(#paint49_linear_14_2157)"/>
<path opacity="0.3" d="M1086.98 542.217L978.493 650.667H1086.98H1195.49L1086.98 542.217Z" fill="url(#paint50_linear_14_2157)"/>
<path opacity="0.1" d="M1086.98 759.116L978.493 650.667H1086.98H1195.49L1086.98 759.116Z" fill="url(#paint51_linear_14_2157)"/>
<path opacity="0.3" d="M978.26 650.448L761.042 867.55H978.26H1195.49L978.26 650.448Z" fill="url(#paint52_linear_14_2157)"/>
</g>
<defs>
<linearGradient id="paint0_linear_14_2157" x1="54.0588" y1="703.847" x2="155.927" y2="805.769" gradientUnits="userSpaceOnUse">
<stop stop-color="#6DA4B5"/>
<stop offset="1" stop-color="#16424F"/>
</linearGradient>
<linearGradient id="paint1_linear_14_2157" x1="54.0588" y1="814.37" x2="155.927" y2="712.463" gradientUnits="userSpaceOnUse">
<stop stop-color="#6DA4B5"/>
<stop offset="1" stop-color="#16424F"/>
</linearGradient>
<linearGradient id="paint2_linear_14_2157" x1="54.0588" y1="920.746" x2="155.927" y2="1022.65" gradientUnits="userSpaceOnUse">
<stop stop-color="#6DA4B5"/>
<stop offset="1" stop-color="#16424F"/>
</linearGradient>
<linearGradient id="paint3_linear_14_2157" x1="271.292" y1="814.37" x2="373.145" y2="712.463" gradientUnits="userSpaceOnUse">
<stop stop-color="#6DA4B5"/>
<stop offset="1" stop-color="#16424F"/>
</linearGradient>
<linearGradient id="paint4_linear_14_2157" x1="271.292" y1="920.746" x2="373.145" y2="1022.65" gradientUnits="userSpaceOnUse">
<stop stop-color="#6DA4B5"/>
<stop offset="1" stop-color="#16424F"/>
</linearGradient>
<linearGradient id="paint5_linear_14_2157" x1="273.367" y1="812.296" x2="171.514" y2="914.203" gradientUnits="userSpaceOnUse">
<stop stop-color="#6DA4B5"/>
<stop offset="1" stop-color="#16424F"/>
</linearGradient>
<linearGradient id="paint6_linear_14_2157" x1="273.367" y1="922.82" x2="171.514" y2="820.913" gradientUnits="userSpaceOnUse">
<stop stop-color="#6DA4B5"/>
<stop offset="1" stop-color="#16424F"/>
</linearGradient>
<linearGradient id="paint7_linear_14_2157" x1="273.367" y1="705.936" x2="171.514" y2="604.014" gradientUnits="userSpaceOnUse">
<stop stop-color="#6DA4B5"/>
<stop offset="1" stop-color="#16424F"/>
</linearGradient>
<linearGradient id="paint8_linear_14_2157" x1="488.526" y1="703.847" x2="590.378" y2="805.769" gradientUnits="userSpaceOnUse">
<stop stop-color="#6DA4B5"/>
<stop offset="1" stop-color="#16424F"/>
</linearGradient>
<linearGradient id="paint9_linear_14_2157" x1="488.526" y1="814.37" x2="590.378" y2="712.463" gradientUnits="userSpaceOnUse">
<stop stop-color="#6DA4B5"/>
<stop offset="1" stop-color="#16424F"/>
</linearGradient>
<linearGradient id="paint10_linear_14_2157" x1="488.526" y1="920.746" x2="590.378" y2="1022.65" gradientUnits="userSpaceOnUse">
<stop stop-color="#6DA4B5"/>
<stop offset="1" stop-color="#16424F"/>
</linearGradient>
<linearGradient id="paint11_linear_14_2157" x1="490.6" y1="812.296" x2="388.732" y2="914.203" gradientUnits="userSpaceOnUse">
<stop stop-color="#6DA4B5"/>
<stop offset="1" stop-color="#16424F"/>
</linearGradient>
<linearGradient id="paint12_linear_14_2157" x1="490.6" y1="922.82" x2="388.732" y2="820.913" gradientUnits="userSpaceOnUse">
<stop stop-color="#6DA4B5"/>
<stop offset="1" stop-color="#16424F"/>
</linearGradient>
<linearGradient id="paint13_linear_14_2157" x1="437.33" y1="761.253" x2="233.499" y2="557.314" gradientUnits="userSpaceOnUse">
<stop stop-color="#6DA4B5"/>
<stop offset="1" stop-color="#16424F"/>
</linearGradient>
<linearGradient id="paint14_linear_14_2157" x1="705.742" y1="270.064" x2="807.611" y2="371.986" gradientUnits="userSpaceOnUse">
<stop stop-color="#6DA4B5"/>
<stop offset="1" stop-color="#16424F"/>
</linearGradient>
<linearGradient id="paint15_linear_14_2157" x1="705.742" y1="380.603" x2="807.611" y2="278.68" gradientUnits="userSpaceOnUse">
<stop stop-color="#6DA4B5"/>
<stop offset="1" stop-color="#16424F"/>
</linearGradient>
<linearGradient id="paint16_linear_14_2157" x1="705.742" y1="486.963" x2="807.611" y2="588.87" gradientUnits="userSpaceOnUse">
<stop stop-color="#6DA4B5"/>
<stop offset="1" stop-color="#16424F"/>
</linearGradient>
<linearGradient id="paint17_linear_14_2157" x1="705.742" y1="597.487" x2="807.611" y2="495.564" gradientUnits="userSpaceOnUse">
<stop stop-color="#6DA4B5"/>
<stop offset="1" stop-color="#16424F"/>
</linearGradient>
<linearGradient id="paint18_linear_14_2157" x1="707.818" y1="272.153" x2="605.965" y2="170.231" gradientUnits="userSpaceOnUse">
<stop stop-color="#6DA4B5"/>
<stop offset="1" stop-color="#16424F"/>
</linearGradient>
<linearGradient id="paint19_linear_14_2157" x1="707.818" y1="378.513" x2="605.965" y2="480.436" gradientUnits="userSpaceOnUse">
<stop stop-color="#6DA4B5"/>
<stop offset="1" stop-color="#16424F"/>
</linearGradient>
<linearGradient id="paint20_linear_14_2157" x1="707.818" y1="489.037" x2="605.965" y2="387.13" gradientUnits="userSpaceOnUse">
<stop stop-color="#6DA4B5"/>
<stop offset="1" stop-color="#16424F"/>
</linearGradient>
<linearGradient id="paint21_linear_14_2157" x1="705.742" y1="703.847" x2="807.611" y2="805.769" gradientUnits="userSpaceOnUse">
<stop stop-color="#6DA4B5"/>
<stop offset="1" stop-color="#16424F"/>
</linearGradient>
<linearGradient id="paint22_linear_14_2157" x1="705.742" y1="814.37" x2="807.611" y2="712.463" gradientUnits="userSpaceOnUse">
<stop stop-color="#6DA4B5"/>
<stop offset="1" stop-color="#16424F"/>
</linearGradient>
<linearGradient id="paint23_linear_14_2157" x1="705.742" y1="920.746" x2="807.611" y2="1022.65" gradientUnits="userSpaceOnUse">
<stop stop-color="#6DA4B5"/>
<stop offset="1" stop-color="#16424F"/>
</linearGradient>
<linearGradient id="paint24_linear_14_2157" x1="707.818" y1="812.296" x2="605.965" y2="914.203" gradientUnits="userSpaceOnUse">
<stop stop-color="#6DA4B5"/>
<stop offset="1" stop-color="#16424F"/>
</linearGradient>
<linearGradient id="paint25_linear_14_2157" x1="707.818" y1="922.82" x2="605.965" y2="820.913" gradientUnits="userSpaceOnUse">
<stop stop-color="#6DA4B5"/>
<stop offset="1" stop-color="#16424F"/>
</linearGradient>
<linearGradient id="paint26_linear_14_2157" x1="707.818" y1="595.413" x2="605.965" y2="697.32" gradientUnits="userSpaceOnUse">
<stop stop-color="#6DA4B5"/>
<stop offset="1" stop-color="#16424F"/>
</linearGradient>
<linearGradient id="paint27_linear_14_2157" x1="707.818" y1="705.936" x2="605.965" y2="604.014" gradientUnits="userSpaceOnUse">
<stop stop-color="#6DA4B5"/>
<stop offset="1" stop-color="#16424F"/>
</linearGradient>
<linearGradient id="paint28_linear_14_2157" x1="922.976" y1="270.064" x2="1024.83" y2="371.986" gradientUnits="userSpaceOnUse">
<stop stop-color="#6DA4B5"/>
<stop offset="1" stop-color="#16424F"/>
</linearGradient>
<linearGradient id="paint29_linear_14_2157" x1="922.976" y1="380.603" x2="1024.83" y2="278.68" gradientUnits="userSpaceOnUse">
<stop stop-color="#6DA4B5"/>
<stop offset="1" stop-color="#16424F"/>
</linearGradient>
<linearGradient id="paint30_linear_14_2157" x1="922.976" y1="486.963" x2="1024.83" y2="588.87" gradientUnits="userSpaceOnUse">
<stop stop-color="#6DA4B5"/>
<stop offset="1" stop-color="#16424F"/>
</linearGradient>
<linearGradient id="paint31_linear_14_2157" x1="922.976" y1="597.487" x2="1024.83" y2="495.564" gradientUnits="userSpaceOnUse">
<stop stop-color="#6DA4B5"/>
<stop offset="1" stop-color="#16424F"/>
</linearGradient>
<linearGradient id="paint32_linear_14_2157" x1="925.052" y1="272.153" x2="823.183" y2="170.231" gradientUnits="userSpaceOnUse">
<stop stop-color="#6DA4B5"/>
<stop offset="1" stop-color="#16424F"/>
</linearGradient>
<linearGradient id="paint33_linear_14_2157" x1="814.469" y1="489.037" x2="916.322" y2="387.114" gradientUnits="userSpaceOnUse">
<stop stop-color="#6DA4B5"/>
<stop offset="1" stop-color="#16424F"/>
</linearGradient>
<linearGradient id="paint34_linear_14_2157" x1="922.976" y1="920.746" x2="1024.83" y2="1022.65" gradientUnits="userSpaceOnUse">
<stop stop-color="#6DA4B5"/>
<stop offset="1" stop-color="#16424F"/>
</linearGradient>
<linearGradient id="paint35_linear_14_2157" x1="925.052" y1="922.82" x2="823.183" y2="820.913" gradientUnits="userSpaceOnUse">
<stop stop-color="#6DA4B5"/>
<stop offset="1" stop-color="#16424F"/>
</linearGradient>
<linearGradient id="paint36_linear_14_2157" x1="925.052" y1="595.413" x2="823.183" y2="697.32" gradientUnits="userSpaceOnUse">
<stop stop-color="#6DA4B5"/>
<stop offset="1" stop-color="#16424F"/>
</linearGradient>
<linearGradient id="paint37_linear_14_2157" x1="1140.19" y1="53.1799" x2="1242.06" y2="155.087" gradientUnits="userSpaceOnUse">
<stop stop-color="#6DA4B5"/>
<stop offset="1" stop-color="#16424F"/>
</linearGradient>
<linearGradient id="paint38_linear_14_2157" x1="1140.19" y1="163.704" x2="1242.06" y2="61.7968" gradientUnits="userSpaceOnUse">
<stop stop-color="#6DA4B5"/>
<stop offset="1" stop-color="#16424F"/>
</linearGradient>
<linearGradient id="paint39_linear_14_2157" x1="1140.19" y1="270.064" x2="1242.06" y2="371.986" gradientUnits="userSpaceOnUse">
<stop stop-color="#6DA4B5"/>
<stop offset="1" stop-color="#16424F"/>
</linearGradient>
<linearGradient id="paint40_linear_14_2157" x1="1140.19" y1="380.603" x2="1242.06" y2="278.68" gradientUnits="userSpaceOnUse">
<stop stop-color="#6DA4B5"/>
<stop offset="1" stop-color="#16424F"/>
</linearGradient>
<linearGradient id="paint41_linear_14_2157" x1="1140.19" y1="486.963" x2="1242.06" y2="588.87" gradientUnits="userSpaceOnUse">
<stop stop-color="#6DA4B5"/>
<stop offset="1" stop-color="#16424F"/>
</linearGradient>
<linearGradient id="paint42_linear_14_2157" x1="1140.19" y1="597.487" x2="1242.06" y2="495.564" gradientUnits="userSpaceOnUse">
<stop stop-color="#6DA4B5"/>
<stop offset="1" stop-color="#16424F"/>
</linearGradient>
<linearGradient id="paint43_linear_14_2157" x1="1142.28" y1="161.63" x2="1040.42" y2="263.537" gradientUnits="userSpaceOnUse">
<stop stop-color="#6DA4B5"/>
<stop offset="1" stop-color="#16424F"/>
</linearGradient>
<linearGradient id="paint44_linear_14_2157" x1="1142.28" y1="272.153" x2="1040.42" y2="170.231" gradientUnits="userSpaceOnUse">
<stop stop-color="#6DA4B5"/>
<stop offset="1" stop-color="#16424F"/>
</linearGradient>
<linearGradient id="paint45_linear_14_2157" x1="1031.7" y1="489.037" x2="1133.55" y2="387.13" gradientUnits="userSpaceOnUse">
<stop stop-color="#6DA4B5"/>
<stop offset="1" stop-color="#16424F"/>
</linearGradient>
<linearGradient id="paint46_linear_14_2157" x1="1140.19" y1="703.847" x2="1242.06" y2="805.769" gradientUnits="userSpaceOnUse">
<stop stop-color="#6DA4B5"/>
<stop offset="1" stop-color="#16424F"/>
</linearGradient>
<linearGradient id="paint47_linear_14_2157" x1="1140.19" y1="814.37" x2="1242.06" y2="712.463" gradientUnits="userSpaceOnUse">
<stop stop-color="#6DA4B5"/>
<stop offset="1" stop-color="#16424F"/>
</linearGradient>
<linearGradient id="paint48_linear_14_2157" x1="1140.19" y1="920.746" x2="1242.06" y2="1022.65" gradientUnits="userSpaceOnUse">
<stop stop-color="#6DA4B5"/>
<stop offset="1" stop-color="#16424F"/>
</linearGradient>
<linearGradient id="paint49_linear_14_2157" x1="1142.28" y1="55.2541" x2="1040.42" y2="-46.653" gradientUnits="userSpaceOnUse">
<stop stop-color="#6DA4B5"/>
<stop offset="1" stop-color="#16424F"/>
</linearGradient>
<linearGradient id="paint50_linear_14_2157" x1="1142.28" y1="595.413" x2="1040.42" y2="697.32" gradientUnits="userSpaceOnUse">
<stop stop-color="#6DA4B5"/>
<stop offset="1" stop-color="#16424F"/>
</linearGradient>
<linearGradient id="paint51_linear_14_2157" x1="1142.28" y1="705.936" x2="1040.42" y2="604.014" gradientUnits="userSpaceOnUse">
<stop stop-color="#6DA4B5"/>
<stop offset="1" stop-color="#16424F"/>
</linearGradient>
<linearGradient id="paint52_linear_14_2157" x1="1088.95" y1="756.917" x2="885.027" y2="960.965" gradientUnits="userSpaceOnUse">
<stop stop-color="#6DA4B5"/>
<stop offset="1" stop-color="#16424F"/>
</linearGradient>
</defs>
</svg>
